<!DOCTYPE svg PUBLIC "-//W3C//DTD SVG 20010904//EN" "http://www.w3.org/TR/2001/REC-SVG-20010904/DTD/svg10.dtd">
<svg version="1.0" xmlns="http://www.w3.org/2000/svg" width="480px" height="368px" viewBox="0 0 4800 3680" preserveAspectRatio="xMidYMid meet">
<g id="layer101" fill="#191e49" stroke="none">
 <path d="M1130 3636 c-354 -76 -615 -337 -686 -685 -22 -110 -15 -295 15 -396 134 -454 596 -720 1050 -604 156 40 293 121 411 245 125 131 195 270 226 445 75 432 -187 849 -613 975 -109 32 -301 41 -403 20z m337 -102 c277 -61 507 -290 574 -570 28 -116 23 -292 -11 -399 -65 -206 -208 -374 -395 -465 -107 -52 -179 -70 -305 -77 -227 -12 -413 60 -580 227 -152 152 -221 317 -223 530 -1 136 17 217 74 336 155 326 509 497 866 418z"/>
 <path d="M1511 3416 c-27 -15 -21 -21 30 -30 44 -8 70 -33 49 -46 -11 -7 -11 -11 -1 -24 8 -9 20 -16 28 -16 8 0 12 -4 8 -10 -3 -5 -13 -7 -23 -4 -16 5 -16 5 1 -6 27 -17 20 -29 -10 -18 -21 8 -42 6 -85 -7 -32 -9 -58 -20 -58 -24 0 -4 25 -23 55 -44 30 -20 55 -33 55 -27 0 5 8 7 18 3 16 -6 16 -5 1 13 -24 28 -33 74 -15 74 7 0 19 -7 26 -15 14 -17 41 -20 56 -5 7 7 24 7 50 1 21 -5 30 -9 20 -10 -13 -1 -16 -4 -10 -10 12 -12 96 -32 89 -21 -3 5 0 10 7 12 6 2 -13 18 -43 35 -30 17 -56 27 -59 22 -3 -4 -10 -5 -15 -1 -14 10 -46 82 -41 91 9 15 -75 82 -101 81 -4 -1 -19 -7 -32 -14z m104 -36 c26 -29 15 -31 -24 -3 -27 18 -30 23 -14 23 11 0 28 -9 38 -20z m-75 -183 c0 -6 -9 -2 -20 8 -11 10 -20 23 -20 28 0 6 9 2 20 -8 11 -10 20 -23 20 -28z m217 16 c-4 -3 -10 -3 -14 0 -3 4 0 7 7 7 7 0 10 -3 7 -7z"/>
 <path d="M1465 3390 c-10 -16 4 -30 32 -30 l26 0 -23 20 c-27 23 -27 23 -35 10z"/>
 <path d="M900 3310 c-8 -5 -26 -10 -40 -10 -14 0 -33 -7 -42 -14 -20 -15 -24 -46 -7 -46 8 0 7 -6 -2 -17 -13 -15 -12 -15 7 -5 12 6 25 23 28 37 5 18 13 25 31 25 30 0 50 -29 65 -94 6 -27 18 -55 27 -61 22 -16 10 -47 -14 -38 -10 3 -26 13 -36 21 -58 51 -133 -106 -107 -224 15 -66 46 -133 64 -140 9 -3 16 -10 16 -16 0 -5 -4 -6 -10 -3 -5 3 -10 2 -10 -4 0 -21 65 -83 111 -107 87 -44 124 -87 154 -179 11 -35 45 31 45 90 0 42 -4 53 -27 72 -23 18 -25 22 -10 23 17 0 17 2 -2 29 -25 34 -27 49 -5 31 13 -12 14 -10 3 12 -7 17 -19 25 -33 24 -20 -1 -21 -3 -9 -26 15 -29 10 -38 -12 -20 -8 7 -15 9 -15 4 0 -4 -11 3 -25 16 -13 12 -22 26 -20 31 3 4 0 11 -6 15 -8 4 -9 3 -5 -4 11 -18 -2 -14 -34 8 -15 11 -47 28 -71 38 -25 11 -50 27 -58 36 -19 23 -8 20 46 -13 27 -16 59 -32 73 -36 24 -6 24 -6 -5 20 -24 21 -20 20 17 -6 27 -18 51 -30 54 -26 4 3 19 0 34 -8 26 -13 40 -11 40 5 0 4 -20 15 -45 24 -43 17 -74 41 -38 30 11 -3 9 1 -7 13 -88 62 -104 100 -75 170 19 44 19 42 -5 36 -24 -6 -31 -16 -41 -57 l-7 -31 -1 32 c-1 44 15 84 32 77 8 -3 31 6 52 20 40 28 55 32 55 16 0 -5 -4 -10 -10 -10 -5 0 -10 -7 -10 -15 0 -8 -4 -15 -9 -15 -18 0 -51 -68 -51 -105 0 -31 7 -44 37 -73 35 -32 132 -86 141 -77 11 10 -22 44 -64 65 -60 31 -78 59 -71 107 8 48 27 67 27 28 1 -50 71 -115 91 -84 13 20 10 40 -9 77 l-18 33 -19 -21 c-14 -16 -20 -17 -27 -8 -12 20 -10 25 28 68 l37 41 -18 39 c-10 22 -24 45 -32 51 -7 7 -18 31 -24 56 -13 49 -19 55 -39 43 -10 -6 -11 -12 -3 -22 7 -8 7 -22 2 -36 -8 -21 -9 -22 -29 -5 -24 21 -26 33 -5 33 9 0 15 9 15 23 0 41 -35 59 -70 37z m144 -162 c8 -13 7 -21 -2 -30 -11 -11 -17 -9 -33 11 -10 13 -19 28 -19 33 0 15 42 4 54 -14z m-156 -280 c18 -18 15 -33 -4 -17 -36 29 -81 159 -55 159 6 0 12 -17 12 -37 1 -26 3 -30 6 -13 11 73 17 72 23 -2 3 -42 11 -83 18 -90z m52 -3 c19 -23 20 -26 5 -15 -26 18 -45 41 -45 54 0 6 3 6 8 1 4 -6 18 -23 32 -40z m21 -140 c27 -14 67 -42 89 -61 44 -40 106 -131 96 -142 -4 -4 -12 2 -18 13 -14 24 -92 103 -133 133 -20 15 -23 20 -10 16 l20 -6 -20 17 c-11 10 -35 23 -52 31 -18 8 -33 16 -33 19 0 9 10 5 61 -20z m-15 -20 c10 -8 14 -15 8 -15 -5 0 -19 7 -30 15 -10 8 -14 15 -8 15 5 0 19 -7 30 -15z"/>
 <path d="M1010 2676 c0 -2 8 -10 18 -17 15 -13 16 -12 3 4 -13 16 -21 21 -21 13z"/>
 <path d="M832 3215 c-12 -9 -22 -20 -22 -26 0 -15 40 -10 46 6 11 27 0 36 -24 20z"/>
 <path d="M1196 3222 c-2 -1 -23 -3 -47 -3 -57 -2 -65 -8 -39 -26 17 -12 19 -21 14 -49 -8 -43 1 -43 22 -1 10 18 19 26 21 19 3 -7 -7 -33 -22 -58 -15 -25 -24 -48 -22 -51 3 -2 11 6 18 19 18 35 71 100 76 94 3 -3 -16 -36 -41 -74 -58 -88 -65 -166 -12 -146 11 4 16 19 16 43 0 59 30 95 113 135 93 45 120 47 48 3 -65 -39 -92 -73 -94 -118 -2 -31 1 -34 33 -39 39 -7 115 -44 125 -61 5 -7 17 -1 35 16 35 34 77 39 175 21 l80 -15 -102 6 c-85 5 -107 3 -128 -11 -14 -9 -25 -24 -25 -33 0 -14 3 -13 23 5 12 11 33 23 47 26 29 7 209 -17 195 -26 -6 -3 -32 -2 -60 3 -74 12 -149 11 -163 -3 -17 -17 -15 -35 4 -42 8 -3 12 -2 9 3 -9 16 15 24 30 11 15 -13 21 -55 7 -46 -4 3 -9 -11 -9 -30 -1 -19 3 -36 8 -39 12 -8 -1 -37 -23 -53 -11 -8 -17 -21 -14 -30 7 -21 -8 -47 -22 -38 -6 4 -19 -5 -28 -20 -14 -20 -15 -27 -5 -34 11 -6 11 -9 0 -13 -10 -4 -10 -6 -1 -6 17 -1 15 -21 -3 -21 -36 0 -4 -81 54 -132 44 -40 56 -45 67 -26 4 6 -6 22 -24 37 -23 19 -36 42 -45 81 -17 67 -10 99 37 151 20 21 38 50 42 64 7 28 1 87 -12 119 -6 17 -4 18 22 11 16 -4 65 -10 108 -14 56 -4 82 -11 89 -22 19 -30 -2 -83 -63 -157 -64 -78 -76 -106 -66 -147 15 -59 92 -87 120 -43 14 23 2 32 -22 17 -18 -11 -24 -10 -41 5 -25 22 -26 47 -7 85 31 59 81 73 197 57 53 -8 56 -7 73 19 14 21 15 29 5 41 -9 11 -9 18 -1 26 8 8 13 7 18 -5 8 -22 21 -21 34 2 8 15 6 29 -7 55 -30 65 -69 58 -59 -10 5 -41 4 -44 -20 -50 -49 -12 -59 12 -60 149 0 88 -5 132 -16 158 l-16 36 -83 7 c-91 7 -239 43 -239 57 0 5 6 9 13 10 6 0 0 5 -15 11 -16 5 -28 14 -28 19 0 5 -6 9 -13 9 -8 0 -24 9 -37 20 -14 12 -31 18 -42 14 -10 -3 -18 -1 -18 5 0 6 -7 8 -15 5 -8 -4 -15 -2 -15 3 0 5 -12 9 -27 8 -16 0 -31 4 -35 9 -4 6 -13 5 -22 -3 -9 -8 -16 -9 -16 -3 0 8 -46 12 -54 4z m88 -43 c-4 -8 0 -9 15 -4 11 3 21 2 21 -2 0 -11 -109 -78 -116 -71 -5 6 67 86 79 87 5 1 5 -4 1 -10z m119 -49 c-24 -11 -43 -21 -43 -23 0 -2 22 1 50 7 45 9 51 8 64 -10 14 -18 12 -19 -26 -26 -49 -9 -110 -38 -116 -56 -2 -7 12 -3 35 10 32 20 52 23 135 23 60 0 101 -4 108 -11 9 -9 -9 -11 -72 -7 -96 6 -154 -6 -198 -43 l-30 -26 0 30 c0 23 9 39 38 62 32 28 34 31 12 25 -14 -4 -33 -14 -43 -23 -31 -28 -31 -3 1 26 34 32 89 62 112 61 8 0 -4 -9 -27 -19z m382 -127 c37 -17 40 -22 39 -56 -1 -29 -10 -47 -34 -72 -41 -42 -53 -37 -35 14 14 41 11 52 -21 69 -25 13 -296 21 -336 9 -39 -10 -36 8 5 30 22 12 68 19 152 24 151 8 180 6 230 -18z m69 -182 l-7 -36 -8 49 c-5 33 -4 56 4 70 11 20 12 19 15 -13 2 -19 0 -51 -4 -70z m-239 47 c3 -3 -1 -8 -9 -11 -8 -3 -20 1 -27 9 -10 12 -8 14 9 11 12 -2 24 -6 27 -9z m22 -5 c-4 -3 -7 0 -7 7 0 7 3 10 7 7 3 -4 3 -10 0 -14z m77 -3 c8 -9 2 -11 -23 -8 -19 2 -36 8 -38 14 -5 15 46 10 61 -6z m101 -120 c-7 -32 -78 -120 -96 -120 -5 0 6 23 26 51 19 28 35 55 35 59 0 5 5 21 10 36 15 38 34 17 25 -26z m149 -58 c2 -4 0 -14 -5 -22 -8 -13 -10 -13 -19 0 -5 8 -10 18 -10 23 0 10 28 9 34 -1z m-86 -18 c32 -9 27 -24 -7 -24 -30 0 -46 12 -34 24 8 7 12 7 41 0z m-203 -138 c0 -30 -3 -52 -7 -49 -5 2 -8 26 -8 54 0 27 3 49 8 49 4 0 7 -24 7 -54z"/>
 <path d="M1605 3000 c-23 -6 -14 -8 38 -9 78 -1 136 -22 144 -51 8 -30 25 -24 21 8 -6 51 -106 77 -203 52z"/>
 <path d="M1589 3196 c20 -21 27 -23 50 -15 14 5 33 12 41 15 13 5 12 7 -2 15 -12 7 -25 6 -39 -2 -15 -8 -24 -8 -32 0 -6 6 -18 11 -26 11 -11 0 -8 -7 8 -24z"/>
 <path d="M1837 3183 c-13 -12 -7 -23 12 -23 11 0 22 -6 24 -12 3 -8 6 -8 6 -2 1 15 -34 46 -42 37z"/>
 <path d="M1221 3054 c-25 -32 -28 -84 -6 -84 11 0 15 11 15 36 0 19 5 44 10 55 15 27 5 24 -19 -7z"/>
 <path d="M676 2940 c-26 -33 -44 -60 -40 -60 4 0 13 8 20 17 7 10 16 15 20 10 9 -9 -36 -58 -47 -51 -12 7 -30 -32 -44 -94 -12 -51 -12 -53 6 -49 12 3 17 1 12 -6 -4 -6 0 -8 10 -4 10 3 17 2 17 -4 0 -6 5 -7 10 -4 6 3 10 -1 10 -9 0 -9 5 -16 10 -16 18 0 22 27 9 52 -7 14 -14 18 -17 10 -7 -21 -19 -13 -26 16 -4 15 -9 35 -12 45 -4 13 0 17 19 17 33 0 87 28 87 46 0 8 -7 14 -16 14 -8 0 -12 5 -9 10 11 17 44 11 55 -11 7 -11 9 -23 6 -26 -11 -11 16 -33 41 -33 l24 0 -20 26 c-11 14 -23 41 -27 60 -8 46 -29 62 -52 40 -30 -26 -47 -19 -21 9 13 13 35 25 48 25 20 0 21 2 11 15 -21 25 -35 17 -84 -45z"/>
 <path d="M1010 2924 c0 -19 27 -48 57 -60 38 -16 60 -9 29 10 -10 6 -34 21 -52 33 -19 12 -34 20 -34 17z"/>
 <path d="M1250 2888 c-47 -13 -68 -34 -82 -80 -15 -50 1 -104 41 -142 38 -37 112 -47 160 -22 105 55 87 214 -28 246 -42 11 -45 11 -91 -2z"/>
 <path d="M1515 2850 c3 -5 8 -10 11 -10 3 0 2 5 -1 10 -3 6 -8 10 -11 10 -3 0 -2 -4 1 -10z"/>
 <path d="M954 2595 c3 -9 6 -19 6 -21 0 -2 6 -4 13 -4 7 0 30 -9 51 -21 21 -11 40 -18 43 -16 5 6 -40 38 -86 62 -31 16 -33 16 -27 0z"/>
 <path d="M775 2580 c3 -5 8 -10 11 -10 2 0 4 5 4 10 0 6 -5 10 -11 10 -5 0 -7 -4 -4 -10z"/>
 <path d="M770 2541 c0 -12 5 -21 10 -21 6 0 10 4 10 9 0 9 66 -11 103 -30 14 -8 17 -8 13 0 -4 6 -3 11 3 11 5 0 12 -4 16 -10 3 -5 12 -7 19 -4 29 11 27 -19 -2 -46 -17 -15 -28 -31 -24 -35 4 -4 -5 0 -20 9 -20 13 -31 15 -47 7 -24 -13 -44 -14 -37 -3 3 5 -11 8 -31 7 -38 -1 -49 -14 -39 -41 5 -13 9 -14 21 -4 12 10 15 9 15 -9 0 -12 6 -21 15 -21 8 0 15 -4 15 -8 0 -21 78 -51 130 -51 30 0 74 0 98 -1 24 0 51 4 60 10 10 5 12 10 5 10 -7 0 -13 7 -13 15 0 7 -8 19 -17 24 -17 10 -17 12 0 25 19 14 18 25 -9 118 -3 9 -23 23 -45 32 -46 19 -59 20 -59 5 0 -5 4 -8 9 -5 12 8 41 -4 41 -16 0 -5 -6 -6 -12 -2 -9 5 -9 2 1 -9 15 -19 36 -23 25 -5 -4 6 -3 8 4 5 6 -4 8 -25 5 -50 -8 -62 -14 -69 -42 -46 -16 14 -20 23 -13 32 22 28 -9 77 -50 77 -10 0 -35 7 -56 16 -20 9 -52 18 -69 21 -28 4 -33 2 -33 -16z m290 -92 c0 -5 -4 -9 -8 -9 -5 0 -9 7 -9 15 0 8 4 12 9 9 4 -3 8 -9 8 -15z m-10 -39 c0 -11 -4 -20 -9 -20 -5 0 -7 9 -4 20 3 11 7 20 9 20 2 0 4 -9 4 -20z m-210 -11 c0 -6 8 -8 20 -4 10 3 35 2 55 -4 19 -5 35 -6 35 -1 0 15 29 19 41 4 10 -12 9 -13 -6 -7 -15 5 -17 3 -12 -11 6 -14 3 -16 -13 -11 -11 4 -20 3 -20 -2 0 -16 -62 -14 -106 3 -47 18 -55 30 -26 37 29 8 32 7 32 -4z m230 -54 c17 -20 11 -24 -22 -18 -16 3 -28 12 -28 19 0 19 34 18 50 -1z m-73 -2 c-4 -3 -10 -3 -14 0 -3 4 0 7 7 7 7 0 10 -3 7 -7z"/>
 <path d="M870 2370 c0 -5 7 -10 15 -10 8 0 15 5 15 10 0 6 -7 10 -15 10 -8 0 -15 -4 -15 -10z"/>
 <path d="M910 2460 c0 -7 3 -10 7 -7 3 4 3 10 0 14 -4 3 -7 0 -7 -7z"/>
 <path d="M1002 2450 c0 -14 2 -19 5 -12 2 6 2 18 0 25 -3 6 -5 1 -5 -13z"/>
 <path d="M1110 2423 c0 -6 -3 -18 -6 -27 -3 -9 -1 -16 5 -16 17 0 25 30 12 43 -8 8 -11 8 -11 0z"/>
 <path d="M1565 2343 c20 -80 18 -107 -14 -142 -26 -30 -37 -34 -73 -33 -23 1 -52 9 -64 17 -24 15 -45 69 -36 93 5 15 36 16 64 1 14 -8 23 -8 31 0 7 7 2 13 -17 21 -41 15 -55 13 -82 -17 -19 -20 -24 -34 -19 -52 8 -32 59 -78 95 -86 34 -8 120 28 120 50 0 8 6 15 14 15 7 0 19 14 26 31 11 25 11 38 0 68 -14 41 -28 61 -42 61 -6 0 -7 -11 -3 -27z"/>
 <path d="M3120 3631 c-324 -71 -584 -324 -660 -644 -24 -99 -27 -279 -6 -378 57 -265 252 -504 503 -615 127 -56 302 -82 444 -65 355 43 647 298 740 646 16 59 22 112 23 205 1 137 -15 220 -64 340 -98 238 -314 427 -570 500 -109 31 -297 36 -410 11z m360 -97 c36 -8 111 -37 168 -65 89 -43 115 -62 190 -137 159 -159 232 -330 232 -547 0 -343 -234 -648 -570 -741 -102 -29 -312 -26 -410 4 -139 44 -225 96 -331 202 -81 81 -102 109 -142 190 -65 133 -80 200 -81 345 0 140 16 211 73 330 158 330 509 499 871 419z"/>
 <path d="M3370 3472 c0 -4 17 -18 37 -32 62 -41 73 -57 73 -100 0 -47 -26 -104 -64 -139 -14 -14 -26 -30 -26 -38 0 -7 -4 -13 -10 -13 -5 0 -10 5 -10 10 0 6 -7 10 -15 10 -18 0 -19 -12 -3 -28 9 -9 7 -12 -10 -12 -12 0 -22 5 -22 10 0 6 -9 19 -20 30 -11 11 -20 26 -20 34 0 8 -10 14 -25 14 -14 0 -25 -4 -25 -9 0 -5 5 -9 10 -9 6 0 10 -6 10 -14 0 -8 9 -17 19 -21 22 -7 18 -37 -7 -57 -12 -10 -16 -10 -19 0 -3 6 -12 12 -21 12 -13 0 -13 3 -4 12 10 10 15 10 22 -2 7 -11 12 -12 21 -3 15 15 1 36 -18 29 -10 -4 -13 -2 -10 7 3 7 -2 22 -10 32 -11 14 -17 16 -20 8 -3 -7 -16 -13 -29 -13 -26 0 -30 -10 -12 -28 9 -9 9 -12 -1 -12 -7 0 -15 9 -18 20 -4 13 -9 17 -17 12 -6 -5 -23 -12 -38 -16 -19 -4 -26 -11 -22 -21 4 -8 2 -15 -4 -15 -6 0 -12 5 -14 11 -2 7 -16 4 -38 -10 -19 -11 -29 -21 -22 -21 6 0 12 -6 12 -14 0 -9 -7 -12 -20 -9 -11 3 -17 9 -14 14 3 5 0 9 -6 9 -7 0 -11 14 -9 33 1 17 1 44 0 59 -2 36 -47 88 -76 88 -29 0 -60 -39 -44 -55 7 -7 13 -5 20 8 14 23 35 21 53 -5 20 -28 20 -62 0 -121 -17 -51 -28 -54 -37 -9 -9 44 -44 82 -77 82 -40 0 -76 -39 -51 -54 5 -3 14 1 21 9 7 8 9 15 4 15 -4 0 -3 5 3 11 25 25 83 -27 83 -73 0 -7 -8 3 -18 22 -9 19 -26 37 -37 39 -18 3 -17 1 5 -17 21 -17 25 -29 27 -93 3 -63 1 -71 -9 -54 -57 90 -148 113 -148 38 0 -26 15 -31 24 -7 11 28 49 12 73 -31 12 -22 24 -44 26 -50 2 -5 13 -2 24 8 21 18 43 23 43 8 0 -5 -9 -11 -20 -14 -13 -3 -18 -10 -14 -21 5 -12 2 -15 -11 -9 -16 6 -17 2 -11 -27 8 -42 9 -43 47 -42 29 1 30 0 13 -13 -12 -8 -23 -10 -28 -4 -16 15 -23 11 -28 -16 -4 -17 -1 -25 8 -25 8 0 13 -3 13 -7 -1 -5 -1 -16 0 -25 1 -21 37 -25 44 -5 3 6 6 1 6 -12 1 -18 -3 -22 -19 -18 -16 4 -14 -1 10 -25 17 -16 30 -34 30 -39 0 -5 7 -9 15 -9 9 0 15 -9 15 -25 0 -18 5 -25 20 -25 17 0 18 -3 10 -26 -9 -22 -8 -25 5 -20 24 9 43 -3 38 -25 -3 -10 -9 -19 -13 -19 -5 0 -6 9 -3 20 3 11 0 20 -6 20 -6 0 -11 -4 -11 -8 0 -5 -9 -18 -19 -29 -11 -11 -21 -37 -23 -57 -4 -49 -22 -50 -26 -1 -1 21 -8 43 -15 47 -7 4 -40 8 -75 8 -37 0 -75 6 -92 15 -17 9 -30 11 -30 6 0 -5 5 -11 12 -13 12 -4 18 -58 6 -58 -3 0 -18 4 -32 10 -14 5 -26 6 -26 1 0 -13 35 -41 53 -41 9 0 19 -4 22 -10 3 -5 23 -10 44 -10 48 0 57 -11 66 -78 6 -43 13 -57 39 -77 17 -13 45 -28 61 -34 25 -9 27 -9 13 1 -9 7 -30 21 -47 30 -17 9 -31 23 -31 29 0 7 11 2 24 -10 17 -16 33 -22 48 -18 18 3 31 -4 57 -34 19 -22 31 -43 27 -46 -4 -4 -10 -3 -14 2 -4 6 -15 17 -26 25 -13 10 -12 4 7 -23 14 -21 28 -43 30 -50 6 -16 13 -8 21 25 5 21 0 34 -24 61 -16 19 -30 44 -30 56 0 24 -9 26 -43 10 -30 -14 -62 1 -73 33 -5 17 0 27 22 45 36 28 49 29 81 3 28 -22 43 -25 43 -10 0 6 -11 15 -25 20 -47 18 -23 65 25 48 40 -13 101 -6 114 14 14 23 0 35 -24 21 -10 -7 -35 -10 -57 -7 -29 3 -33 2 -18 -5 22 -11 6 -15 -20 -5 -13 5 -14 8 -3 15 10 6 10 11 0 21 -14 14 -16 32 -3 24 12 -8 25 89 15 106 -4 7 -9 21 -10 32 0 11 -6 22 -12 24 -15 5 -15 37 -2 62 6 12 17 16 30 13 29 -8 25 15 -5 29 -20 9 -28 8 -43 -5 -38 -34 -62 -14 -62 54 0 14 -9 35 -21 48 -12 12 -18 25 -14 29 3 3 10 0 14 -7 7 -11 13 -9 30 8 11 11 33 21 47 21 24 0 25 2 19 33 -4 17 -14 38 -23 44 -21 17 -9 27 16 14 14 -7 22 -26 27 -58 6 -38 15 -54 42 -77 40 -34 57 -27 23 9 -25 27 -21 32 9 13 10 -6 26 -8 35 -5 24 9 20 46 -6 57 -23 9 -23 9 -2 9 12 1 27 -6 34 -14 16 -19 34 -19 27 0 -4 8 -2 17 4 20 5 4 12 -1 15 -9 3 -9 11 -13 16 -10 6 4 5 10 -3 15 -7 4 -10 11 -6 15 3 4 13 2 20 -5 18 -15 47 -4 40 15 -4 10 0 12 11 8 9 -3 23 -1 31 6 13 11 14 10 9 -4 -3 -9 -10 -16 -15 -16 -5 0 -9 -5 -9 -11 0 -8 14 -10 42 -6 60 8 128 -12 128 -37 0 -18 -1 -19 -20 -1 -28 25 -25 14 10 -42 33 -51 39 -73 15 -53 -21 17 -19 3 5 -30 19 -27 19 -29 3 -32 -13 -2 -6 -12 29 -35 25 -17 49 -29 52 -26 3 3 -6 25 -19 48 -14 23 -25 50 -25 59 0 10 -9 30 -20 45 -14 21 -18 37 -13 65 4 26 2 36 -8 36 -10 0 -10 3 -1 12 9 9 16 8 29 -4 22 -19 101 -30 125 -17 29 16 108 -75 108 -126 0 -7 -20 -38 -46 -69 -52 -64 -48 -74 8 -19 21 20 38 32 38 27 0 -16 -59 -94 -75 -101 -8 -3 -15 -9 -15 -14 0 -31 71 26 95 77 10 21 17 60 17 97 0 55 1 59 10 33 20 -56 -29 -184 -92 -241 -20 -18 -27 -45 -11 -45 4 0 28 22 53 48 61 65 82 123 76 210 -5 62 -4 65 8 37 21 -48 17 -124 -9 -166 -82 -134 -87 -145 -87 -186 0 -24 -3 -43 -6 -43 -15 0 -44 22 -39 30 13 20 -27 71 -73 93 -26 13 -65 36 -86 51 -22 15 -46 25 -55 24 -35 -7 -15 -26 67 -62 78 -35 152 -90 138 -103 -3 -3 -26 7 -51 22 -48 27 -180 85 -197 85 -23 0 9 -22 95 -66 50 -26 111 -60 135 -76 23 -16 42 -26 42 -21 0 4 5 2 12 -5 8 -8 9 -15 1 -23 -7 -7 -21 -4 -45 11 -38 22 -259 123 -296 134 -13 5 -22 3 -22 -3 0 -6 6 -11 14 -11 8 0 28 -11 44 -24 15 -14 59 -36 96 -50 60 -23 161 -76 145 -76 -4 0 -59 23 -123 50 -64 28 -123 50 -132 50 -8 0 -13 4 -10 9 3 4 -6 13 -19 19 -27 13 -32 4 -12 -18 6 -8 3 -7 -9 3 -11 9 -30 17 -42 17 -12 0 -26 9 -32 20 -6 11 -17 20 -26 20 -8 0 -26 11 -40 25 -20 20 -23 29 -15 44 8 14 6 23 -9 36 -23 21 -18 34 5 15 9 -7 19 -10 23 -6 7 8 -33 46 -49 46 -10 0 -28 -59 -36 -121 -4 -38 -2 -49 18 -72 20 -22 39 -29 123 -42 216 -34 431 -135 458 -216 2 -7 10 -9 16 -5 21 13 13 54 -15 81 -22 20 -24 25 -10 25 9 0 17 3 17 8 0 4 4 13 9 20 6 11 14 8 34 -12 35 -35 74 -35 88 1 12 33 5 53 -19 53 -50 0 -54 74 -8 135 l26 34 30 -30 c23 -23 35 -29 52 -24 53 16 61 55 13 55 -33 0 -41 36 -26 105 24 107 16 171 -34 269 -28 55 -26 66 14 66 33 0 51 16 51 47 0 28 -11 30 -28 3 -13 -21 -56 -27 -67 -10 -4 6 -11 8 -16 5 -15 -10 -10 59 6 81 15 20 20 54 8 54 -5 0 -16 -18 -26 -39 -21 -46 -56 -68 -85 -52 -20 11 -20 11 -1 62 24 61 18 103 -17 125 -25 17 -54 13 -54 -7 0 -7 9 -9 25 -5 18 5 27 1 35 -13 13 -25 13 -34 0 -26 -5 3 -10 -3 -10 -15 0 -12 -7 -35 -16 -52 -16 -30 -16 -31 -76 -24 -34 3 -70 6 -81 6 -18 0 -19 5 -13 48 17 133 23 145 75 136 20 -4 42 -11 49 -17 7 -5 16 -7 20 -3 12 12 -26 33 -71 40 -28 4 -52 16 -69 35 -15 16 -38 31 -50 34 l-23 6 21 -17 c27 -23 44 -55 44 -84 -1 -17 -5 -12 -15 17 -8 22 -15 41 -15 42 0 0 -15 10 -32 20 -37 22 -78 35 -78 25z m347 -239 c-4 -3 -7 0 -7 7 0 7 3 10 7 7 3 -4 3 -10 0 -14z m-7 -22 c0 -5 -9 -19 -20 -32 l-20 -24 17 32 c19 34 23 39 23 24z m-178 -63 c-21 -22 -23 -22 -39 -4 -17 17 -17 18 4 12 12 -4 24 -2 28 4 3 5 11 10 18 10 6 0 1 -10 -11 -22z m98 -4 c0 -8 6 -14 13 -14 6 0 4 -5 -6 -11 -24 -14 -38 0 -31 29 7 23 24 21 24 -4z m-455 -14 c-3 -5 -10 -10 -16 -10 -5 0 -9 5 -9 10 0 6 7 10 16 10 8 0 12 -4 9 -10z m252 -35 c-8 -5 -12 -16 -9 -23 4 -14 -15 -42 -29 -42 -5 0 -9 5 -9 10 0 6 7 10 15 10 8 0 15 5 15 10 0 6 -7 13 -15 16 -18 7 -20 41 -2 47 6 2 20 -1 30 -7 14 -9 15 -13 4 -21z m-117 15 c0 -5 -2 -10 -4 -10 -3 0 -8 5 -11 10 -3 6 -1 10 4 10 6 0 11 -4 11 -10z m234 -15 c8 -9 13 -22 10 -30 -7 -18 -28 -20 -21 -2 2 6 -2 20 -11 30 -19 21 1 23 22 2z m127 -8 c-10 -9 -11 -8 -5 6 3 10 9 15 12 12 3 -3 0 -11 -7 -18z m99 7 c0 -11 -5 -14 -16 -10 -9 3 -18 6 -20 6 -3 0 -2 5 1 10 10 16 35 12 35 -6z m-286 -18 c-7 -17 -44 -23 -44 -6 0 5 7 7 15 4 9 -4 18 1 21 10 4 9 8 15 10 13 3 -2 2 -12 -2 -21z m-319 4 c4 -6 -5 -10 -19 -10 -14 0 -26 -4 -26 -8 0 -17 37 -42 53 -37 17 7 31 -10 22 -25 -5 -8 -11 -8 -20 0 -7 6 -20 7 -29 4 -10 -4 -16 -2 -14 4 2 6 -6 17 -16 25 -19 14 -19 14 2 35 24 24 37 27 47 12z m162 3 c-4 -3 -10 -3 -14 0 -3 4 0 7 7 7 7 0 10 -3 7 -7z m-97 -13 c0 -5 -4 -10 -10 -10 -5 0 -10 5 -10 10 0 6 5 10 10 10 6 0 10 -4 10 -10z m47 -6 c3 -8 0 -21 -7 -27 -10 -10 -12 -8 -6 7 4 12 1 23 -6 28 -11 6 -11 8 0 8 7 0 15 -7 19 -16z m87 -5 c-6 -11 -24 -2 -24 11 0 5 7 7 15 4 8 -4 12 -10 9 -15z m-507 -26 c-3 -10 -5 -4 -5 12 0 17 2 24 5 18 2 -7 2 -21 0 -30z m729 10 c-4 -9 -1 -22 5 -30 9 -11 8 -17 -7 -28 -26 -19 -37 -19 -51 4 -10 16 -8 22 12 35 14 9 25 23 25 32 0 8 5 12 11 9 6 -4 8 -14 5 -22z m184 2 c35 -22 52 -45 34 -45 -14 0 -72 41 -78 55 -7 20 -2 19 44 -10z m-1050 11 c0 -2 -7 -6 -15 -10 -8 -3 -15 -1 -15 4 0 6 7 10 15 10 8 0 15 -2 15 -4z m247 -21 c2 -11 0 -14 -3 -7 -3 6 -18 12 -32 12 -21 0 -24 2 -12 10 22 15 44 8 47 -15z m337 -22 c-10 -7 -20 -10 -23 -7 -3 3 2 10 12 15 9 6 18 18 18 27 1 14 2 13 6 -2 3 -12 -2 -25 -13 -33z m351 27 c-10 -11 -20 -18 -23 -16 -5 6 21 35 32 36 5 0 1 -9 -9 -20z m-478 3 c-4 -3 -10 -3 -14 0 -3 4 0 7 7 7 7 0 10 -3 7 -7z m67 -1 c2 -4 1 -14 -3 -21 -6 -9 -10 -7 -14 8 -5 20 7 29 17 13z m-444 -56 c0 -5 -9 3 -20 17 -11 14 -20 29 -20 34 1 10 39 -39 40 -51z m237 37 c-4 -3 -7 0 -7 7 0 7 3 10 7 7 3 -4 3 -10 0 -14z m428 -3 c7 -22 -1 -40 -17 -40 -7 0 -6 6 2 15 10 12 10 18 0 30 -8 9 -8 15 -2 15 6 0 13 -9 17 -20z m-115 -1 c0 -6 9 -9 20 -6 13 3 20 0 20 -9 0 -19 17 -18 30 4 11 16 11 16 6 -1 -3 -10 -6 -21 -6 -23 0 -9 -28 -3 -58 12 -31 15 -43 34 -22 34 6 0 10 -5 10 -11z m406 -24 c40 -35 33 -48 -12 -19 -26 18 -51 54 -36 54 5 0 26 -16 48 -35z m-826 10 c6 -8 8 -19 4 -26 -5 -8 -9 -7 -16 5 -7 12 -13 14 -29 6 -24 -13 -25 -2 -1 16 22 17 27 17 42 -1z m716 -22 c-10 -10 -19 5 -10 18 6 11 8 11 12 0 2 -7 1 -15 -2 -18z m-576 -4 c9 -15 8 -24 -1 -35 -18 -22 -30 -17 -23 10 4 17 0 27 -13 35 -17 10 -16 10 4 11 13 0 27 -9 33 -21z m60 2 c0 -5 -7 -11 -15 -15 -15 -5 -20 5 -8 17 9 10 23 9 23 -2z m560 -6 c20 -24 6 -28 -15 -5 -10 11 -13 20 -8 20 6 0 16 -7 23 -15z m-525 -5 c-3 -5 -10 -10 -16 -10 -5 0 -9 5 -9 10 0 6 7 10 16 10 8 0 12 -4 9 -10z m726 -97 c10 -43 9 -68 -6 -147 -17 -93 -17 -97 0 -116 10 -11 25 -20 34 -20 11 0 12 -3 4 -11 -17 -17 -50 -1 -63 31 -10 25 -10 40 4 88 24 86 21 159 -9 218 -31 62 -31 78 0 39 14 -16 30 -53 36 -82z m-916 69 c-8 -8 -25 10 -19 20 4 6 9 5 15 -3 4 -7 6 -15 4 -17z m-45 -12 c0 -11 -3 -20 -8 -20 -4 0 -13 9 -20 20 -11 18 -10 20 8 20 13 0 20 -7 20 -20z m904 -19 c15 -26 20 -52 19 -110 -1 -84 -15 -132 -62 -205 -54 -86 -54 -159 0 -178 24 -8 27 -13 18 -24 -16 -19 -29 -18 -56 8 -18 16 -23 32 -23 67 0 45 13 78 76 191 23 40 25 54 22 126 -3 60 -10 90 -26 118 -26 45 -27 48 -5 44 9 -2 26 -18 37 -37z m-949 9 c3 -5 -1 -10 -10 -10 -9 0 -13 5 -10 10 3 6 8 10 10 10 2 0 7 -4 10 -10z m59 -215 c-4 -8 -10 -12 -15 -9 -11 6 -2 24 11 24 5 0 7 -7 4 -15z m-107 -218 c9 4 13 0 12 -8 -2 -8 3 -25 10 -37 7 -13 11 -26 8 -28 -8 -8 -57 18 -51 27 10 17 -7 31 -22 18 -19 -15 -44 -4 -44 20 0 17 4 18 36 11 20 -5 43 -6 51 -3z m256 -64 c-7 -2 -19 -2 -25 0 -7 3 -2 5 12 5 14 0 19 -2 13 -5z"/>
 <path d="M3550 2999 c0 -24 23 -21 28 4 2 10 -3 17 -12 17 -10 0 -16 -9 -16 -21z"/>
 <path d="M3018 3362 c-51 -10 -14 -97 45 -106 18 -3 82 -9 142 -14 61 -6 120 -13 132 -17 16 -5 29 0 47 18 35 35 25 61 -18 53 -17 -4 -59 -10 -93 -13 -54 -5 -63 -3 -69 12 -4 10 -1 27 6 39 8 14 2 11 -21 -10 -45 -41 -64 -47 -104 -30 -23 10 -37 24 -42 43 -5 20 -13 27 -25 25z"/>
 <path d="M3303 3188 c2 -7 11 -11 18 -9 8 2 24 4 36 5 44 2 35 16 -11 16 -34 0 -46 -4 -43 -12z"/>
 <path d="M3234 2910 c-11 -4 -33 -22 -47 -40 -81 -95 29 -235 146 -186 67 28 100 129 61 185 -30 42 -108 62 -160 41z"/>
 <path d="M3476 2702 c-3 -3 2 -11 12 -19 16 -13 15 -14 -5 -8 -36 10 -27 -1 25 -31 26 -15 57 -34 70 -42 34 -22 26 0 -18 50 -37 43 -72 63 -84 50z"/>
 <path d="M3240 2630 c0 -4 7 -13 15 -20 16 -13 50 -6 41 9 -7 11 -56 21 -56 11z"/>
 <path d="M3177 2623 c-11 -10 13 -33 34 -33 24 0 24 9 2 26 -21 15 -27 17 -36 7z"/>
 <path d="M3305 2590 c-3 -5 -5 -10 -3 -11 56 -12 97 1 46 15 -31 8 -36 8 -43 -4z"/>
 <path d="M3240 2571 c0 -13 24 -31 43 -31 10 0 17 5 15 12 -5 13 -58 31 -58 19z"/>
 <path d="M3157 2408 c-42 -56 -68 -118 -74 -174 -6 -52 -5 -55 34 -94 34 -33 47 -40 80 -40 44 0 63 14 63 46 0 24 -17 34 -61 34 -22 0 -30 6 -35 25 -13 51 5 95 62 152 58 58 61 63 41 63 -25 0 -86 -61 -111 -112 -45 -90 -27 -141 55 -154 36 -6 39 -8 25 -22 -13 -13 -21 -14 -55 -3 -51 15 -71 44 -71 101 1 61 31 124 83 171 41 39 42 39 15 39 -19 0 -34 -10 -51 -32z"/>
 <path d="M3373 2387 c-17 -21 -41 -91 -48 -138 -9 -63 13 -115 59 -134 45 -19 93 -4 102 31 9 35 -2 58 -24 49 -9 -5 -28 -8 -42 -9 -38 -2 -40 56 -3 126 37 71 36 68 22 68 -27 0 -68 -82 -71 -141 -2 -48 14 -67 58 -71 38 -3 47 -21 13 -26 -42 -7 -70 8 -85 44 -18 42 -11 90 22 156 22 43 19 75 -3 45z"/>
 <path d="M3506 2333 c-10 -26 14 -126 37 -150 25 -28 68 -30 90 -5 25 27 21 40 -18 56 -41 18 -52 38 -37 71 11 24 -1 46 -16 30 -14 -14 -6 -84 12 -104 26 -28 11 -40 -16 -14 -15 15 -23 38 -26 77 -4 56 -14 71 -26 39z"/>
 <path d="M1120 1776 c-171 -36 -328 -124 -452 -254 -410 -430 -275 -1128 268 -1378 126 -58 226 -77 389 -71 122 4 152 8 235 35 453 149 703 635 558 1082 -90 278 -308 489 -590 571 -94 27 -311 35 -408 15z m360 -101 c91 -22 234 -95 303 -154 118 -103 190 -206 241 -348 29 -84 31 -95 31 -243 -1 -144 -3 -161 -28 -235 -73 -209 -201 -356 -392 -450 -200 -99 -399 -110 -608 -34 -234 85 -413 281 -479 528 -28 106 -28 277 1 384 79 296 328 518 636 568 68 11 215 3 295 -16z"/>
 <path d="M1270 1554 c-65 -23 -95 -63 -85 -117 3 -18 1 -39 -5 -47 -9 -13 -12 -13 -24 3 -24 32 -93 20 -143 -25 -21 -19 -101 -44 -111 -34 -3 3 0 11 6 19 15 18 -9 85 -38 109 -32 26 -65 22 -104 -12 -24 -22 -34 -39 -33 -56 3 -36 19 -34 31 4 12 36 39 57 57 46 10 -6 9 -16 -7 -96 -8 -35 23 -52 76 -43 54 9 63 0 40 -38 -11 -18 -20 -47 -20 -65 0 -31 -8 -43 -54 -75 -20 -15 -14 -37 10 -37 8 0 14 9 14 19 0 29 17 34 24 8 3 -12 9 -67 12 -122 6 -89 4 -106 -14 -148 -26 -58 -70 -87 -134 -87 -39 0 -50 5 -71 30 -25 30 -28 55 -12 113 8 29 -11 40 -21 12 -9 -22 -26 -7 -19 16 5 14 2 19 -13 19 -15 0 -21 -9 -26 -46 -3 -28 -2 -52 5 -60 7 -9 5 -24 -10 -56 -16 -36 -18 -45 -6 -57 16 -17 35 -6 35 20 0 25 8 24 61 -5 24 -14 75 -30 113 -36 75 -12 129 -36 163 -72 28 -30 45 -75 38 -99 -8 -24 -39 -41 -61 -32 -12 4 -15 2 -12 -8 2 -8 21 -15 40 -17 28 -2 40 2 52 20 42 59 1 151 -84 190 -28 13 -50 29 -50 37 0 8 11 28 24 45 60 80 69 111 76 276 8 164 9 173 48 233 50 75 118 94 201 56 64 -28 41 -40 -53 -26 -73 10 -79 10 -92 -8 -19 -25 -18 -50 3 -70 13 -14 32 -16 101 -13 82 3 85 4 113 38 34 41 36 53 9 87 -11 14 -20 41 -20 59 0 38 -5 41 -31 18 -24 -22 -39 -10 -39 31 0 47 37 76 88 68 102 -14 134 -106 61 -174 -32 -30 -25 -45 16 -35 32 8 55 54 55 106 0 49 -22 91 -59 113 -29 17 -98 29 -121 21z"/>
 <path d="M1645 1356 c-10 -15 -18 -48 -19 -78 -1 -50 0 -52 32 -60 17 -5 32 -15 32 -23 0 -17 -30 -35 -59 -35 -12 0 -21 -4 -21 -10 0 -14 104 -12 118 2 7 7 12 23 12 36 0 25 -52 107 -72 115 -10 3 -10 9 -2 23 18 29 122 22 146 -9 10 -13 13 -26 8 -32 -6 -7 -6 -24 -1 -41 l9 -29 1 28 c1 39 21 34 21 -5 0 -44 -29 -100 -60 -116 -16 -8 -45 -11 -77 -8 -61 5 -115 -7 -154 -36 -26 -20 -89 -123 -89 -147 0 -28 -46 -127 -73 -158 -72 -81 -200 -107 -292 -58 -26 14 -50 23 -53 21 -8 -9 58 -66 102 -88 53 -28 147 -29 196 -3 90 47 128 96 180 238 54 145 115 177 275 143 99 -20 128 -20 165 -1 50 26 37 47 -14 24 -28 -13 -95 1 -130 27 -19 14 -19 14 1 36 11 13 27 44 35 69 13 42 13 51 -2 90 -23 58 -81 100 -148 107 -45 4 -52 2 -67 -22z"/>
 <path d="M853 1270 c-13 -5 -23 -18 -23 -28 0 -18 18 -42 30 -42 9 0 30 47 30 65 0 17 -6 18 -37 5z"/>
 <path d="M791 1233 c-5 -10 -12 -17 -15 -16 -13 5 -36 -10 -36 -23 0 -8 -6 -11 -15 -8 -9 4 -18 -1 -22 -12 -4 -11 -19 -31 -35 -46 -27 -25 -38 -71 -20 -82 17 -10 87 16 122 45 77 65 83 78 58 132 -15 31 -23 34 -37 10z"/>
 <path d="M1301 1201 c-17 -11 3 -51 25 -51 9 0 12 5 8 11 -4 7 -1 10 7 7 8 -3 16 -15 17 -28 3 -21 1 -22 -28 -16 -18 3 -39 6 -46 6 -9 0 -14 12 -14 35 0 32 -2 35 -30 35 -24 0 -30 -4 -30 -21 0 -16 5 -20 20 -16 15 4 20 0 20 -14 0 -14 -7 -19 -30 -19 -27 0 -30 3 -30 30 0 38 -18 40 -22 3 -3 -24 -8 -28 -38 -31 -55 -4 -81 -12 -75 -22 3 -5 19 -7 35 -3 31 6 34 1 20 -32 -7 -17 -9 -17 -9 -2 -1 9 -7 17 -15 17 -8 0 -12 -8 -9 -22 2 -13 0 -34 -6 -48 -9 -22 -10 -19 -10 23 -1 52 -11 60 -31 22 -10 -20 -11 -27 0 -40 7 -8 10 -24 7 -35 -3 -11 -1 -23 5 -26 5 -3 7 -12 4 -20 -3 -8 -2 -14 3 -14 5 0 8 -8 7 -17 0 -10 7 -19 18 -21 14 -3 17 0 13 13 -4 9 0 31 9 48 l15 32 -22 -25 c-16 -18 -20 -20 -16 -7 4 11 10 30 13 43 3 13 10 21 15 18 9 -5 13 2 23 48 4 18 11 25 20 22 8 -3 19 3 25 15 9 15 19 19 39 16 15 -2 55 -7 90 -9 37 -3 85 -15 118 -30 63 -29 64 -29 64 -18 0 5 -22 19 -50 32 -45 21 -49 26 -43 49 8 34 13 39 13 13 0 -25 19 -39 30 -22 11 19 29 3 23 -20 -3 -11 0 -20 6 -20 6 0 13 11 17 25 8 33 23 32 21 -1 -1 -16 4 -29 12 -32 10 -3 12 0 7 13 -5 14 -2 16 16 12 13 -3 34 0 47 7 24 13 24 14 3 25 -27 15 -49 14 -55 -1 -3 -8 -6 -6 -6 4 -1 19 -41 46 -41 28 0 -5 -5 -10 -12 -10 -6 0 -8 3 -5 7 7 6 -23 22 -71 37 -17 6 -21 4 -16 -8 5 -14 2 -14 -28 -2 -19 8 -40 11 -47 7z m-144 -98 c-4 -3 -10 -3 -14 0 -3 4 0 7 7 7 7 0 10 -3 7 -7z"/>
 <path d="M1128 1189 c-16 -9 -15 -39 2 -39 7 0 22 41 17 46 -1 2 -10 -2 -19 -7z"/>
 <path d="M1040 1166 c0 -25 12 -40 24 -29 3 3 1 12 -5 20 -9 10 -8 13 4 13 8 0 17 -7 21 -15 9 -25 24 -17 18 10 -3 20 -10 25 -33 25 -24 0 -29 -4 -29 -24z"/>
 <path d="M1195 1056 c-89 -39 -107 -159 -34 -227 92 -85 239 -17 239 111 0 94 -111 157 -205 116z"/>
 <path d="M1715 1013 c-16 -3 -34 -8 -38 -12 -11 -11 32 -81 49 -81 8 0 24 -6 35 -12 18 -11 23 -10 26 0 3 7 17 24 31 37 24 22 24 25 7 31 -13 5 -24 0 -37 -16 -23 -29 -32 -22 -18 15 8 22 8 30 -2 37 -7 4 -15 7 -18 6 -3 0 -18 -3 -35 -5z"/>
 <path d="M1942 979 c-19 -17 -43 -29 -60 -29 -31 0 -78 -42 -67 -59 11 -18 71 -12 98 9 14 11 29 31 33 43 3 12 13 30 22 40 26 29 9 27 -26 -4z"/>
 <path d="M1627 986 c-3 -7 1 -23 8 -34 17 -23 10 -34 -19 -26 -16 4 -24 -2 -33 -23 -7 -15 -20 -39 -29 -53 -14 -20 -10 -18 17 8 24 21 41 30 52 26 9 -3 17 -1 17 5 0 5 9 15 20 21 33 18 23 -2 -30 -59 -67 -71 -85 -106 -71 -138 8 -18 17 -23 37 -20 30 4 135 87 127 100 -3 5 -21 -6 -40 -25 -27 -25 -33 -27 -24 -11 6 13 20 27 32 33 11 6 17 15 14 21 -9 13 -31 -1 -60 -41 -16 -22 -25 -28 -25 -17 0 9 14 32 31 52 l31 35 32 -18 c17 -9 35 -23 39 -29 4 -7 17 -13 27 -13 15 0 20 7 20 25 0 14 6 25 13 25 21 0 77 -39 77 -54 0 -32 -48 -71 -139 -113 -83 -38 -105 -54 -162 -116 -64 -69 -67 -71 -94 -59 -27 13 -28 20 -10 65 12 28 -20 10 -34 -19 -14 -31 -14 -30 5 -48 9 -9 32 -16 56 -16 33 0 39 -3 34 -16 -11 -29 -50 -71 -91 -99 -34 -22 -47 -26 -85 -21 -31 4 -52 14 -67 31 -28 32 -29 47 -2 71 20 18 21 18 39 -6 15 -20 21 -23 32 -12 20 20 -3 47 -45 50 -97 8 -106 -122 -11 -158 35 -14 62 -12 123 6 71 21 113 63 164 164 37 76 47 88 92 112 28 16 76 38 108 49 71 27 117 75 117 124 0 47 -8 64 -41 80 -38 20 -78 19 -102 -2 -19 -17 -19 -17 -13 4 5 16 1 26 -19 40 -60 41 -95 76 -95 94 0 22 -15 25 -23 5z m73 -116 c0 -5 -4 -10 -10 -10 -5 0 -10 5 -10 10 0 6 5 10 10 10 6 0 10 -4 10 -10z m-30 -20 c0 -5 -4 -10 -9 -10 -5 0 -24 -22 -42 -50 -19 -27 -38 -50 -42 -50 -11 0 10 37 45 83 29 36 48 47 48 27z"/>
 <path d="M1583 848 c-49 -53 -63 -80 -63 -123 -1 -38 -1 -39 -13 -17 -14 24 -30 20 -20 -4 3 -9 0 -12 -9 -9 -8 3 -29 -6 -46 -21 l-31 -27 26 -14 c33 -17 36 -16 29 3 -5 14 -4 15 9 4 12 -10 18 -10 31 1 25 21 46 69 40 94 -4 16 4 35 27 65 54 72 60 80 55 80 -2 0 -18 -15 -35 -32z"/>
 <path d="M1043 863 c-20 -7 -15 -58 6 -77 11 -10 25 -15 30 -11 15 9 14 48 -1 64 -11 10 -10 11 5 6 18 -7 21 -21 18 -67 -1 -16 3 -28 8 -28 16 0 13 57 -4 90 -15 28 -33 35 -62 23z"/>
 <path d="M1155 760 c-23 -26 -5 -26 37 0 33 20 33 20 7 20 -14 0 -34 -9 -44 -20z"/>
 <path d="M1279 768 c-8 -7 -31 -14 -53 -15 -21 -2 -45 -8 -54 -15 -13 -11 -11 -13 9 -18 29 -8 92 5 97 19 2 5 10 7 18 4 16 -6 18 5 5 25 -7 11 -10 11 -22 0z"/>
 <path d="M3141 1780 c-342 -72 -602 -323 -682 -657 -28 -118 -23 -331 11 -438 94 -298 338 -527 634 -595 83 -19 116 -22 234 -18 121 4 148 9 234 38 280 94 492 320 569 606 31 115 32 308 1 422 -83 308 -313 542 -617 627 -70 20 -316 29 -384 15z m348 -106 c216 -54 404 -207 501 -409 29 -59 55 -131 64 -177 51 -248 -21 -504 -191 -681 -105 -110 -217 -178 -360 -219 -102 -29 -295 -31 -392 -4 -296 81 -514 317 -566 611 -18 106 -19 167 -1 265 30 162 98 293 216 411 115 115 268 194 428 219 75 12 220 4 301 -16z"/>
 <path d="M3395 1610 c-3 -6 1 -10 9 -10 9 0 16 -5 16 -10 0 -6 -11 -8 -25 -4 -16 4 -30 1 -40 -9 -21 -22 -19 -30 8 -22 81 24 117 26 117 4 0 -4 -8 -6 -17 -2 -16 6 -16 4 1 -15 10 -12 20 -39 22 -60 3 -34 0 -41 -22 -50 -14 -7 -33 -12 -42 -11 -14 0 -13 2 3 9 18 8 18 9 -5 9 -31 1 -46 -9 -45 -29 0 -10 10 -15 33 -14 17 1 32 -2 32 -7 0 -5 -4 -9 -10 -9 -5 0 -10 -4 -10 -10 0 -5 7 -10 17 -10 19 0 103 -52 128 -80 10 -11 23 -20 29 -20 5 0 -9 20 -33 44 -28 28 -39 46 -32 51 7 4 9 16 5 27 -4 13 -1 24 7 29 11 6 11 11 1 21 -6 6 -12 17 -12 23 0 11 49 -45 50 -57 0 -5 -8 -8 -17 -8 -14 0 -14 -3 -5 -12 10 -10 15 -10 21 1 7 11 19 10 67 -4 33 -9 65 -22 73 -28 11 -9 15 -9 18 1 3 6 9 12 14 12 4 0 6 -7 2 -16 -4 -10 1 -17 15 -21 27 -7 34 -27 20 -58 -14 -32 -1 -47 18 -21 20 28 18 39 -19 88 -25 32 -47 48 -88 63 -79 29 -105 49 -127 98 -11 25 -35 55 -53 69 -45 33 -116 60 -124 48z m144 -105 c11 -19 17 -35 13 -35 -5 0 -19 19 -32 42 -28 49 -11 43 19 -7z m76 -85 c12 -19 -12 -10 -31 11 -19 22 -19 22 3 10 12 -6 25 -16 28 -21z m-112 -19 c-3 -10 0 -22 6 -25 6 -4 11 -11 11 -17 0 -16 -26 -10 -45 11 -15 16 -15 22 -5 35 18 21 39 19 33 -4z"/>
 <path d="M2874 1506 c4 -15 0 -28 -9 -36 -8 -7 -15 -23 -15 -35 0 -13 -6 -25 -12 -28 -7 -2 -10 -8 -6 -12 13 -14 59 25 65 55 7 38 36 40 59 4 14 -21 15 -31 6 -62 -10 -31 -9 -39 3 -48 16 -12 10 -25 -9 -18 -7 3 -19 -2 -26 -11 -12 -14 -11 -18 1 -26 14 -10 4 -9 -51 7 -11 3 -20 1 -20 -5 0 -6 -8 -11 -17 -11 -16 -1 -16 -2 1 -15 19 -14 18 -15 -10 -16 -16 0 -23 -3 -16 -6 18 -7 14 -24 -5 -21 -11 2 -18 -3 -18 -12 0 -8 -7 -20 -15 -27 -19 -15 -20 -160 -1 -216 27 -80 103 -140 226 -178 39 -12 86 -30 105 -40 43 -22 100 -73 100 -88 0 -6 3 -11 8 -11 4 0 7 -23 7 -51 0 -46 -3 -53 -25 -61 -23 -9 -24 -10 -6 -20 14 -8 21 -7 27 3 6 10 9 11 9 2 0 -7 9 -13 20 -13 11 0 20 6 20 14 0 8 6 16 14 19 10 4 17 31 21 82 5 49 14 83 25 98 18 21 18 22 39 3 21 -19 21 -19 21 2 0 48 -77 31 -102 -22 -7 -16 -16 -22 -29 -19 -15 4 -18 2 -12 -12 4 -13 3 -16 -5 -11 -17 11 -15 34 5 45 16 8 15 11 -7 30 -14 11 -30 20 -35 21 -6 0 -16 9 -23 20 -7 11 -19 20 -27 20 -17 0 -20 -16 -5 -25 6 -3 10 -12 10 -18 -1 -7 -12 1 -25 18 -16 20 -21 33 -14 41 6 8 4 14 -7 18 -24 9 -27 8 -20 -11 3 -10 -5 -5 -19 12 -24 29 -26 50 -3 27 7 -7 16 -12 22 -12 5 0 -7 16 -28 35 -37 34 -37 35 -31 88 6 43 3 60 -10 80 -34 53 30 102 124 95 44 -4 71 -14 125 -47 38 -23 76 -40 85 -37 61 19 96 36 93 46 -1 7 2 18 8 25 8 9 8 15 0 20 -5 3 -10 0 -10 -8 0 -8 -10 -13 -22 -13 -16 1 -22 -4 -20 -15 4 -24 -30 -34 -45 -14 -6 10 -17 14 -23 10 -6 -4 -19 -1 -28 7 -9 8 -42 27 -72 43 -47 25 -65 29 -124 28 -56 -1 -80 -7 -128 -32 -66 -35 -80 -37 -98 -16 -11 13 -8 15 18 15 26 0 34 6 48 35 22 47 62 78 91 70 23 -5 23 -4 17 51 -7 56 -7 56 15 44 13 -6 25 -9 28 -6 3 3 -6 10 -19 15 -15 6 -28 21 -32 37 -13 50 -44 82 -102 103 -73 28 -88 27 -80 -3z m121 -206 c-3 -5 -11 -10 -16 -10 -6 0 -7 5 -4 10 3 6 11 10 16 10 6 0 7 -4 4 -10z m-25 -209 c0 -14 -42 -41 -52 -35 -12 8 21 44 39 44 7 0 13 -4 13 -9z m-6 -80 c6 -9 -16 -21 -40 -21 -20 0 -17 18 4 23 28 8 31 7 36 -2z m71 -129 c6 -4 11 -14 11 -22 1 -8 5 -24 9 -35 5 -15 1 -14 -19 8 -34 37 -35 74 -1 49z m255 -247 c0 -9 -6 -12 -15 -9 -8 4 -15 1 -15 -6 0 -6 -4 -9 -10 -5 -5 3 -7 12 -3 20 7 19 43 19 43 0z m-10 -55 c0 -5 -4 -10 -10 -10 -5 0 -10 5 -10 10 0 6 5 10 10 10 6 0 10 -4 10 -10z"/>
 <path d="M3130 1380 c0 -4 -2 -15 -5 -22 -4 -10 6 -18 34 -26 35 -11 40 -16 47 -55 5 -23 8 -50 6 -59 -1 -9 8 -20 19 -23 30 -10 35 2 13 26 -19 21 -19 22 4 15 25 -8 32 11 7 20 -8 4 -15 11 -15 16 0 6 7 8 15 4 24 -9 17 14 -7 25 -22 9 -22 9 2 4 61 -15 113 -18 106 -6 -4 6 -14 11 -22 11 -8 0 -14 5 -14 10 0 14 22 12 43 -4 9 -7 15 -20 12 -28 -4 -9 4 -20 19 -28 21 -11 28 -11 41 0 14 12 15 9 9 -28 -6 -36 -3 -42 19 -57 15 -9 31 -14 37 -10 14 9 2 25 -14 19 -8 -3 -17 -1 -21 5 -3 6 1 11 11 11 14 0 15 3 6 12 -19 19 -14 30 9 18 15 -9 24 -8 35 1 17 14 19 -2 2 -20 -11 -10 -4 -20 32 -53 l45 -40 -37 17 c-46 23 -94 14 -79 -14 7 -12 7 -21 0 -28 -6 -6 -5 -14 6 -23 12 -10 18 -10 30 0 17 14 31 8 20 -9 -3 -6 -20 -11 -37 -11 -25 0 -29 -3 -23 -17 4 -10 10 -41 15 -70 12 -71 32 -105 87 -149 72 -57 83 -72 83 -116 0 -54 -51 -108 -103 -108 -57 0 -114 62 -77 85 16 10 12 35 -5 35 -21 0 -39 -43 -31 -75 8 -31 59 -65 101 -66 26 -1 27 -2 7 -7 -36 -11 -92 -99 -92 -144 0 -77 54 -138 121 -138 65 0 98 51 64 96 -13 18 -14 17 -15 -16 0 -20 -5 -41 -12 -48 -41 -41 -138 24 -138 92 0 68 43 122 133 167 98 48 128 143 68 212 l-30 33 30 11 c18 7 29 18 29 30 0 31 -12 35 -36 12 -27 -25 -49 -20 -92 22 -27 27 -32 39 -32 80 0 27 4 49 9 49 5 0 25 -7 44 -15 44 -18 148 -24 154 -9 2 7 -5 10 -22 7 -33 -7 -55 12 -55 47 0 25 34 69 45 58 3 -3 -1 -11 -10 -18 -20 -17 -20 -61 0 -54 8 4 21 1 28 -5 10 -8 22 -7 45 1 27 11 34 10 49 -5 10 -10 12 -17 6 -17 -7 0 -15 5 -18 10 -10 16 -23 12 -35 -11 -10 -17 -7 -24 14 -44 29 -27 32 -52 11 -110 -18 -49 -18 -45 -2 -45 8 0 19 10 25 23 6 12 11 16 11 10 1 -18 41 -16 41 2 0 8 4 15 9 15 5 0 14 -7 21 -15 9 -10 9 -15 1 -15 -6 0 -11 -5 -11 -11 0 -6 14 -9 32 -7 26 2 37 11 55 43 24 42 30 75 13 75 -5 0 -10 -11 -10 -23 0 -13 -9 -32 -19 -41 -18 -16 -21 -16 -50 -1 -17 8 -31 20 -31 26 0 8 -4 8 -14 0 -13 -11 -14 4 -14 104 2 151 3 149 -163 177 -127 21 -142 28 -175 84 -10 17 -13 17 -29 4 -16 -14 -17 -13 -10 8 6 22 5 23 -15 12 -20 -11 -21 -10 -15 10 6 19 4 20 -22 14 -26 -7 -27 -6 -13 10 13 16 12 18 -10 14 -14 -1 -32 4 -41 13 -21 21 -102 36 -107 20 -5 -16 -22 -14 -22 4 0 8 -13 16 -32 18 -57 8 -98 7 -98 -3z m546 -288 c4 -20 3 -32 -4 -32 -6 0 -9 7 -6 15 4 8 -1 26 -10 40 -20 30 -21 44 -1 25 8 -9 17 -30 21 -48z m-108 23 c24 -27 28 -45 12 -45 -5 0 -10 7 -10 16 0 12 -7 15 -24 12 -19 -4 -23 -1 -23 19 0 30 18 29 45 -2z m66 -1 c9 -22 -3 -32 -14 -14 -12 19 -12 30 -1 30 5 0 12 -7 15 -16z m-22 -56 c-7 -7 -12 -8 -12 -2 0 14 12 26 19 19 2 -3 -1 -11 -7 -17z m38 2 c0 -11 -4 -20 -9 -20 -5 0 -7 9 -4 20 3 11 7 20 9 20 2 0 4 -9 4 -20z"/>
 <path d="M2900 1325 c-8 -9 -8 -15 -2 -15 12 0 26 19 19 26 -2 2 -10 -2 -17 -11z"/>
 <path d="M3135 1310 c-3 -5 -4 -14 0 -19 3 -5 1 -12 -5 -16 -18 -11 23 -54 50 -54 l25 0 -22 11 c-25 12 -32 34 -8 24 8 -3 15 -2 15 3 0 5 -10 12 -22 16 -20 6 -20 8 -5 12 9 2 17 11 17 19 0 16 -36 19 -45 4z"/>
 <path d="M3097 1283 c-4 -3 -7 -11 -7 -17 0 -6 5 -5 12 2 6 6 9 14 7 17 -3 3 -9 2 -12 -2z"/>
 <path d="M3297 1273 c-14 -14 -6 -23 21 -23 16 0 32 -8 40 -20 11 -18 9 -21 -14 -31 -19 -7 -31 -6 -38 1 -7 7 -3 10 13 10 12 0 19 4 16 10 -3 6 -17 10 -31 10 -28 0 -32 -21 -7 -45 18 -19 71 -14 84 7 6 9 10 8 15 -5 10 -27 26 -20 22 10 -2 16 -12 32 -24 38 -11 5 -28 18 -38 28 -18 17 -47 23 -59 10z"/>
 <path d="M3100 1230 c0 -5 5 -10 10 -10 6 0 10 5 10 10 0 6 -4 10 -10 10 -5 0 -10 -4 -10 -10z"/>
 <path d="M3364 1151 c3 -5 15 -7 26 -4 28 7 25 13 -6 13 -14 0 -23 -4 -20 -9z"/>
 <path d="M2679 1117 c-42 -53 -44 -64 -6 -28 65 62 51 24 -22 -61 -39 -45 -74 -92 -77 -105 -8 -32 4 -73 21 -73 9 0 15 -10 15 -26 0 -14 4 -23 9 -20 18 12 18 46 0 81 -25 47 -25 50 18 76 20 13 31 25 25 27 -20 6 -13 25 7 19 16 -4 21 1 23 22 5 42 31 32 41 -16 4 -24 13 -43 18 -43 6 0 8 9 4 20 -3 10 -12 50 -19 86 -6 37 -16 69 -21 71 -6 2 -22 -12 -36 -30z"/>
 <path d="M3076 1099 c-15 -12 -25 -24 -22 -27 3 -3 15 3 26 13 11 10 37 21 58 25 l37 8 -36 1 c-23 1 -46 -7 -63 -20z"/>
 <path d="M3245 1043 c-95 -26 -126 -147 -56 -217 26 -26 39 -31 96 -34 63 -4 66 -3 99 30 61 61 56 160 -13 201 -31 18 -95 28 -126 20z"/>
 <path d="M3790 774 c-16 -41 -12 -69 13 -92 21 -20 25 -20 43 -7 19 14 19 14 -2 15 -34 0 -47 24 -39 70 8 45 -1 53 -15 14z"/>
 <path d="M3023 753 c-7 -2 -13 -9 -13 -14 0 -4 6 -6 14 -3 9 3 22 -5 32 -21 16 -24 16 -27 1 -43 -10 -9 -43 -19 -74 -23 -86 -11 -118 -22 -119 -42 -1 -12 12 -21 50 -32 28 -8 67 -25 86 -38 l35 -22 -125 -6 c-69 -3 -136 -11 -150 -18 -21 -10 -17 -11 33 -6 45 4 57 2 57 -9 0 -9 16 -16 48 -21 45 -6 53 -12 110 -80 l61 -73 75 -7 c42 -4 82 -5 91 -1 16 6 78 -18 108 -43 9 -8 20 -11 24 -8 10 11 -27 45 -62 57 -17 6 -42 22 -53 35 -12 14 -28 25 -36 25 -8 0 -27 13 -43 28 -15 15 -48 36 -73 46 -40 16 -45 16 -56 2 -15 -22 -24 -20 -24 4 0 22 -10 26 -26 10 -7 -7 -23 -4 -48 8 -31 15 -35 20 -21 26 10 3 23 2 29 -3 6 -5 22 -9 36 -9 14 1 61 -7 104 -15 54 -11 83 -13 91 -7 7 6 21 8 31 4 14 -4 13 -1 -6 15 -38 32 -9 25 44 -10 26 -17 50 -29 53 -25 3 3 -5 10 -18 16 -23 10 -22 10 6 6 19 -3 37 2 50 12 19 16 19 16 6 -1 -8 -9 -11 -20 -8 -24 4 -3 12 6 18 21 16 34 5 44 -21 21 -21 -19 -35 -17 -130 16 -14 5 -34 8 -45 7 -54 -4 -200 57 -239 101 -16 18 -15 18 43 20 33 0 71 5 85 10 29 12 43 46 26 66 -6 8 -9 19 -6 24 5 8 -25 33 -36 30 -2 0 -9 -3 -15 -6z m134 -379 c38 -25 70 -50 71 -55 6 -15 -119 -1 -145 17 -19 12 -43 50 -43 69 0 3 23 11 42 14 4 0 38 -20 75 -45z"/>
 </g>

</svg>